<svg width="25" height="24" viewBox="0 0 25 24" fill="none" xmlns="http://www.w3.org/2000/svg">
<path d="M21.6795 8.01001L15.24 2.77002C13.9815 1.75002 12.0153 1.74002 10.7667 2.76002L4.32712 8.01001C3.40297 8.76001 2.84258 10.26 3.03921 11.44L4.27797 18.98C4.56308 20.67 6.1066 22 7.78777 22H18.209C19.8705 22 21.4436 20.64 21.7287 18.97L22.9674 11.43C23.1444 10.26 22.584 8.76001 21.6795 8.01001ZM13.7358 18C13.7358 18.41 13.4015 18.75 12.9984 18.75C12.5953 18.75 12.2611 18.41 12.2611 18V15C12.2611 14.59 12.5953 14.25 12.9984 14.25C13.4015 14.25 13.7358 14.59 13.7358 15V18Z" fill="#343A40"/>
</svg>
