<svg width="25" height="24" viewBox="0 0 25 24" fill="none" xmlns="http://www.w3.org/2000/svg">
<path d="M4.75 22C4.35 22 4 21.85 3.7 21.55C3.4 21.25 3.25 20.9 3.25 20.5V5C3.25 4.6 3.4 4.25 3.7 3.95C4 3.65 4.35 3.5 4.75 3.5H6.375V2.8C6.375 2.57333 6.45165 2.38334 6.605 2.23C6.75835 2.07667 6.94835 2 7.175 2C7.40865 2 7.6046 2.07667 7.76275 2.23C7.9209 2.38334 8 2.57333 8 2.8V3.5H16.5V2.8C16.5 2.57333 16.5766 2.38334 16.73 2.23C16.8833 2.07667 17.0733 2 17.3 2C17.5338 2 17.7298 2.07667 17.8878 2.23C18.0459 2.38334 18.125 2.57333 18.125 2.8V3.5H19.75C20.15 3.5 20.5 3.65 20.8 3.95C21.1 4.25 21.25 4.6 21.25 5V9.775C21.25 9.9875 21.1777 10.1656 21.033 10.3092C20.8885 10.4531 20.7094 10.525 20.4955 10.525C20.2819 10.525 20.1041 10.4525 19.9625 10.3075C19.8209 10.1627 19.75 9.98315 19.75 9.769V9.75H4.75V20.5H12C12.2125 20.5 12.3906 20.5723 12.5345 20.717C12.6782 20.8615 12.75 21.0406 12.75 21.2545C12.75 21.4681 12.6782 21.6459 12.5345 21.7875C12.3906 21.9291 12.2125 22 12 22H4.75ZM14.25 21.25V19.225C14.25 19.1322 14.2667 19.0423 14.3 18.9555C14.3334 18.8685 14.3917 18.7833 14.475 18.7L19.7652 13.4307C19.9171 13.2787 20.0858 13.1689 20.2715 13.1012C20.4571 13.0337 20.6417 13 20.825 13C21.025 13 21.2167 13.0375 21.4 13.1125C21.5833 13.1875 21.75 13.3 21.9 13.45L22.825 14.375C22.975 14.525 23.0833 14.6917 23.15 14.875C23.2167 15.0583 23.25 15.2417 23.25 15.425C23.25 15.6083 23.2125 15.7958 23.1375 15.9875C23.0625 16.1792 22.9494 16.351 22.798 16.503L17.55 21.775C17.4666 21.8583 17.3815 21.9167 17.2945 21.95C17.2077 21.9834 17.1178 22 17.025 22H15C14.7875 22 14.6094 21.9281 14.4657 21.7843C14.3219 21.6406 14.25 21.4625 14.25 21.25ZM20.825 16.4L21.75 15.425L20.825 14.5L19.875 15.45L20.825 16.4Z" fill="black"/>
</svg>
